<svg xmlns="http://www.w3.org/2000/svg" viewBox="0 0 1200 800">
  <defs>
    <linearGradient id="cqsky" x1="0" y1="0" x2="0" y2="1">
      <stop offset="0%" stop-color="#060810"/>
      <stop offset="30%" stop-color="#0e1838"/>
      <stop offset="60%" stop-color="#1a3060"/>
      <stop offset="100%" stop-color="#244880"/>
    </linearGradient>
    <linearGradient id="cqsea" x1="0" y1="0" x2="0" y2="1">
      <stop offset="0%" stop-color="#1a3868"/>
      <stop offset="100%" stop-color="#060810"/>
    </linearGradient>
    <radialGradient id="cqmoon" cx="20%" cy="15%" r="18%">
      <stop offset="0%" stop-color="#f0e8c0" stop-opacity="1"/>
      <stop offset="55%" stop-color="#a89040" stop-opacity="0.35"/>
      <stop offset="100%" stop-color="#060810" stop-opacity="0"/>
    </radialGradient>
    <linearGradient id="cqrock" x1="0" y1="0" x2="0" y2="1">
      <stop offset="0%" stop-color="#251c10"/>
      <stop offset="100%" stop-color="#160e06"/>
    </linearGradient>
  </defs>

  <!-- Sky -->
  <rect width="1200" height="800" fill="url(#cqsky)"/>

  <!-- Moon -->
  <ellipse cx="240" cy="120" rx="140" ry="90" fill="url(#cqmoon)"/>
  <circle cx="240" cy="108" r="35" fill="#f0e8c0" opacity="0.93"/>
  <circle cx="240" cy="108" r="27" fill="#fffbe8"/>

  <!-- Stars -->
  <g fill="#e8f0ff" opacity="0.6">
    <circle cx="50" cy="50" r="2"/><circle cx="130" cy="25" r="1.5"/><circle cx="380" cy="45" r="1"/>
    <circle cx="480" cy="20" r="2"/><circle cx="580" cy="60" r="1.5"/><circle cx="680" cy="32" r="1"/>
    <circle cx="800" cy="55" r="1.5"/><circle cx="920" cy="28" r="1"/><circle cx="1020" cy="52" r="2"/>
    <circle cx="1100" cy="30" r="1.5"/><circle cx="1160" cy="72" r="1"/><circle cx="310" cy="90" r="1"/>
    <circle cx="440" cy="105" r="1.5"/><circle cx="700" cy="95" r="1"/><circle cx="850" cy="88" r="1.5"/>
    <circle cx="1040" cy="100" r="1"/><circle cx="1130" cy="115" r="1.5"/>
  </g>

  <!-- Sea -->
  <rect x="0" y="560" width="1200" height="240" fill="url(#cqsea)"/>
  <!-- Sea shimmer -->
  <g stroke="#1e3870" stroke-width="1.5" opacity="0.5" fill="none">
    <path d="M 0 578 Q 300 570 600 578 Q 900 586 1200 578"/>
    <path d="M 0 600 Q 400 592 800 600 Q 1000 604 1200 600"/>
    <path d="M 0 628 Q 500 620 1000 628 Q 1100 632 1200 628"/>
    <path d="M 0 660 Q 600 652 1200 660"/>
  </g>
  <!-- Moon reflection -->
  <path d="M 190 575 Q 240 585 290 575 Q 265 620 240 655 Q 215 620 190 575 Z" fill="#c9a84c" opacity="0.18"/>
  <line x1="240" y1="570" x2="240" y2="720" stroke="#c9a84c" stroke-width="4" opacity="0.1"/>

  <!-- Rocky cliff — Manarola style (rock jutting into sea) -->
  <path d="M 300 800 L 300 420 Q 320 365 380 340 Q 440 318 520 310 Q 600 304 680 308 Q 760 314 820 336 Q 880 360 900 420 L 900 800 Z" fill="url(#cqrock)"/>
  <!-- Rocky texture -->
  <path d="M 300 420 Q 320 430 340 420 Q 355 430 375 418 Q 390 428 410 416" stroke="#1e1408" stroke-width="2" fill="none" opacity="0.5"/>
  <path d="M 860 440 Q 875 430 890 440 Q 880 450 870 445" stroke="#1e1408" stroke-width="2" fill="none" opacity="0.5"/>

  <!-- Left sea cliff -->
  <path d="M 0 800 L 0 500 Q 30 460 80 445 Q 130 432 180 440 L 240 560 L 0 560 Z" fill="url(#cqrock)"/>
  <!-- Right sea cliff -->
  <path d="M 1200 800 L 1200 520 Q 1170 478 1120 462 Q 1070 448 1020 458 L 970 560 L 1200 560 Z" fill="url(#cqrock)"/>

  <!-- MANAROLA style houses — stacked tower-like on cliff -->
  <!-- Base row (widest, ground floor) -->
  <g>
    <rect x="318" y="500" width="38" height="62" rx="1" fill="#8b2a1a"/>
    <rect x="360" y="492" width="42" height="70" rx="1" fill="#c8783a"/>
    <rect x="406" y="485" width="40" height="77" rx="1" fill="#d4a84c"/>
    <rect x="450" y="480" width="44" height="82" rx="1" fill="#e84a3a"/>
    <rect x="498" y="476" width="40" height="86" rx="1" fill="#4a80a8"/>
    <rect x="542" y="478" width="42" height="84" rx="1" fill="#c8b060"/>
    <rect x="588" y="480" width="38" height="82" rx="1" fill="#2a6a4a"/>
    <rect x="630" y="484" width="42" height="78" rx="1" fill="#8b2a1a"/>
    <rect x="676" y="490" width="40" height="72" rx="1" fill="#c8783a"/>
    <rect x="720" y="496" width="38" height="66" rx="1" fill="#d4a84c"/>
    <rect x="762" y="504" width="42" height="58" rx="1" fill="#4a80a8"/>
    <rect x="808" y="512" width="38" height="50" rx="1" fill="#e84a3a"/>
    <rect x="850" y="520" width="40" height="42" rx="1" fill="#c8b060"/>
  </g>

  <!-- Middle row (narrower, stepped back) -->
  <g>
    <rect x="330" y="430" width="36" height="65" rx="1" fill="#c8783a"/>
    <rect x="370" y="420" width="40" height="68" rx="1" fill="#d4a84c"/>
    <rect x="414" y="412" width="38" height="74" rx="1" fill="#8b2a1a"/>
    <rect x="456" y="406" width="42" height="78" rx="1" fill="#4a80a8"/>
    <rect x="502" y="400" width="40" height="78" rx="1" fill="#c8b060"/>
    <rect x="546" y="402" width="38" height="78" rx="1" fill="#e84a3a"/>
    <rect x="588" y="406" width="42" height="76" rx="1" fill="#c8783a"/>
    <rect x="634" y="412" width="38" height="72" rx="1" fill="#2a6a4a"/>
    <rect x="676" y="420" width="40" height="66" rx="1" fill="#d4a84c"/>
    <rect x="720" y="430" width="38" height="60" rx="1" fill="#8b2a1a"/>
    <rect x="762" y="440" width="40" height="55" rx="1" fill="#4a80a8"/>
    <rect x="806" y="450" width="38" height="50" rx="1" fill="#c8b060"/>
    <rect x="848" y="460" width="38" height="44" rx="1" fill="#e84a3a"/>
  </g>

  <!-- Upper row (tower-like, stepped further back) -->
  <g>
    <rect x="345" y="360" width="34" height="65" rx="1" fill="#d4a84c"/>
    <rect x="383" y="350" width="38" height="68" rx="1" fill="#8b2a1a"/>
    <rect x="425" y="340" width="36" height="72" rx="1" fill="#4a80a8"/>
    <rect x="465" y="333" width="40" height="73" rx="1" fill="#c8783a"/>
    <rect x="509" y="326" width="38" height="76" rx="1" fill="#e84a3a"/>
    <rect x="551" y="326" width="38" height="78" rx="1" fill="#d4a84c"/>
    <rect x="593" y="328" width="40" height="78" rx="1" fill="#2a6a4a"/>
    <rect x="637" y="334" width="36" height="76" rx="1" fill="#8b2a1a"/>
    <rect x="677" y="342" width="38" height="72" rx="1" fill="#c8b060"/>
    <rect x="719" y="352" width="36" height="68" rx="1" fill="#4a80a8"/>
    <rect x="759" y="364" width="38" height="62" rx="1" fill="#c8783a"/>
    <rect x="801" y="378" width="36" height="58" rx="1" fill="#d4a84c"/>
  </g>

  <!-- Top cluster (tallest buildings, tower-like) -->
  <g>
    <rect x="370" y="285" width="32" height="68" rx="1" fill="#c8783a"/>
    <rect x="406" y="270" width="36" height="74" rx="1" fill="#8b2a1a"/>
    <rect x="446" y="260" width="34" height="78" rx="1" fill="#4a80a8"/>
    <rect x="484" y="252" width="38" height="78" rx="1" fill="#d4a84c"/>
    <rect x="526" y="248" width="36" height="82" rx="1" fill="#c8b060"/>
    <rect x="566" y="250" width="36" height="80" rx="1" fill="#e84a3a"/>
    <rect x="606" y="255" width="36" height="78" rx="1" fill="#c8783a"/>
    <rect x="646" y="262" width="34" height="75" rx="1" fill="#2a6a4a"/>
    <rect x="684" y="272" width="36" height="68" rx="1" fill="#d4a84c"/>
    <rect x="724" y="284" width="34" height="62" rx="1" fill="#8b2a1a"/>
    <rect x="762" y="298" width="34" height="56" rx="1" fill="#4a80a8"/>
  </g>

  <!-- Church/landmark at peak -->
  <rect x="525" y="198" width="50" height="55" fill="#e8d8a0"/>
  <path d="M 519 202 L 550 168 L 581 202 Z" fill="#d4c070"/>
  <rect x="546" y="163" width="8" height="14" fill="#c0a840"/>
  <line x1="550" y1="153" x2="550" y2="148" stroke="#c9a84c" stroke-width="3" opacity="0.8"/>
  <line x1="545" y1="150" x2="555" y2="150" stroke="#c9a84c" stroke-width="3" opacity="0.8"/>

  <!-- Tower (Manarola clock tower) -->
  <rect x="606" y="192" width="26" height="65" fill="#c8c090"/>
  <path d="M 602 196 L 619 175 L 636 196 Z" fill="#b8b070"/>
  <!-- Clock face -->
  <circle cx="619" cy="215" r="7" fill="#d8d0a0" stroke="#a0985a" stroke-width="1"/>

  <!-- Windows lit on houses -->
  <g fill="#f5e890" opacity="0.7">
    <rect x="326" y="512" width="7" height="10" rx="1"/><rect x="337" y="512" width="7" height="10" rx="1"/>
    <rect x="368" y="504" width="7" height="10" rx="1"/><rect x="380" y="504" width="7" height="10" rx="1"/>
    <rect x="418" y="497" width="7" height="10" rx="1"/><rect x="430" y="497" width="7" height="10" rx="1"/>
    <rect x="460" y="492" width="7" height="10" rx="1"/><rect x="472" y="492" width="7" height="10" rx="1"/>
    <rect x="508" y="488" width="7" height="10" rx="1"/><rect x="520" y="488" width="7" height="10" rx="1"/>
    <rect x="550" y="490" width="7" height="10" rx="1"/><rect x="562" y="490" width="7" height="10" rx="1"/>
    <rect x="596" y="492" width="7" height="10" rx="1"/><rect x="608" y="492" width="7" height="10" rx="1"/>
    <rect x="638" y="496" width="7" height="10" rx="1"/><rect x="650" y="496" width="7" height="10" rx="1"/>
    <rect x="684" y="502" width="7" height="10" rx="1"/><rect x="696" y="502" width="7" height="10" rx="1"/>
    <rect x="728" y="508" width="7" height="10" rx="1"/><rect x="740" y="508" width="7" height="10" rx="1"/>
    <!-- Upper levels -->
    <rect x="340" y="440" width="7" height="10" rx="1"/><rect x="420" y="422" width="7" height="10" rx="1"/>
    <rect x="510" y="412" width="7" height="10" rx="1"/><rect x="595" y="416" width="7" height="10" rx="1"/>
    <rect x="680" y="428" width="7" height="10" rx="1"/><rect x="762" y="442" width="7" height="10" rx="1"/>
    <!-- Top levels -->
    <rect x="415" y="275" width="7" height="10" rx="1"/><rect x="493" y="266" width="7" height="10" rx="1"/>
    <rect x="534" y="262" width="7" height="10" rx="1"/><rect x="574" y="264" width="7" height="10" rx="1"/>
    <rect x="612" y="270" width="7" height="10" rx="1"/><rect x="690" y="285" width="7" height="10" rx="1"/>
  </g>

  <!-- Fishing boats at sea foot -->
  <g fill="#0e1828">
    <path d="M 90 590 Q 125 582 160 590 Q 148 599 125 601 Q 102 599 90 590 Z"/>
    <path d="M 1020 585 Q 1060 577 1100 585 Q 1086 595 1060 597 Q 1034 595 1020 585 Z"/>
    <path d="M 580 615 Q 610 607 640 615 Q 628 624 610 626 Q 592 624 580 615 Z"/>
    <path d="M 380 628 Q 408 620 436 628 Q 424 638 408 640 Q 392 638 380 628 Z"/>
    <path d="M 720 622 Q 748 614 776 622 Q 764 632 748 634 Q 732 632 720 622 Z"/>
  </g>
  <g stroke="#162030" stroke-width="1.5" opacity="0.55">
    <line x1="125" y1="583" x2="125" y2="565"/>
    <line x1="1060" y1="578" x2="1060" y2="558"/>
    <line x1="610" y1="608" x2="610" y2="590"/>
    <line x1="408" y1="621" x2="408" y2="603"/>
    <line x1="748" y1="615" x2="748" y2="597"/>
  </g>

  <!-- Atmospheric vignette -->
  <rect x="0" y="0" width="1200" height="800" fill="#060810" opacity="0.2"/>
</svg>
