<svg xmlns="http://www.w3.org/2000/svg" viewBox="0 0 1200 800">
  <defs>
    <linearGradient id="sky" x1="0" y1="0" x2="0" y2="1">
      <stop offset="0%" stop-color="#0a0508"/>
      <stop offset="25%" stop-color="#3d1008"/>
      <stop offset="55%" stop-color="#9b3a18"/>
      <stop offset="75%" stop-color="#c9783a"/>
      <stop offset="100%" stop-color="#e8b060"/>
    </linearGradient>
    <radialGradient id="glow" cx="62%" cy="58%" r="35%">
      <stop offset="0%" stop-color="#f5d070" stop-opacity="0.85"/>
      <stop offset="50%" stop-color="#c9603a" stop-opacity="0.4"/>
      <stop offset="100%" stop-color="#3d1008" stop-opacity="0"/>
    </radialGradient>
  </defs>

  <!-- Sky -->
  <rect width="1200" height="800" fill="url(#sky)"/>
  <!-- Sun glow -->
  <ellipse cx="740" cy="460" rx="280" ry="160" fill="url(#glow)"/>
  <!-- Sun -->
  <circle cx="740" cy="440" r="52" fill="#f5e888" opacity="0.95"/>
  <circle cx="740" cy="440" r="42" fill="#fffbc0"/>

  <!-- Stars -->
  <g fill="#f5f0e8" opacity="0.55">
    <circle cx="80" cy="60" r="1.5"/><circle cx="170" cy="30" r="1"/><circle cx="260" cy="90" r="2"/>
    <circle cx="380" cy="45" r="1.5"/><circle cx="480" cy="20" r="1"/><circle cx="550" cy="70" r="1.5"/>
    <circle cx="200" cy="130" r="1"/><circle cx="320" cy="110" r="1.5"/><circle cx="430" cy="155" r="1"/>
    <circle cx="960" cy="50" r="2"/><circle cx="1060" cy="25" r="1.5"/><circle cx="1140" cy="75" r="1"/>
    <circle cx="880" cy="100" r="1"/><circle cx="1010" cy="110" r="1.5"/><circle cx="1100" cy="140" r="1"/>
  </g>

  <!-- Ground -->
  <rect x="0" y="640" width="1200" height="160" fill="#0a0604"/>

  <!-- Colosseum silhouette — outer wall -->
  <path d="M 120 640 L 120 420 Q 122 360 200 345 Q 300 328 400 322 Q 500 318 600 317 Q 700 317 800 320 Q 900 326 980 342 Q 1060 358 1080 418 L 1080 640 Z" fill="#120608"/>

  <!-- Colosseum inner darker fill -->
  <path d="M 160 640 L 160 430 Q 162 390 230 378 Q 320 364 420 358 Q 510 354 600 352 Q 690 352 780 356 Q 870 361 940 375 Q 1008 390 1010 430 L 1010 640 Z" fill="#0a0408"/>

  <!-- Arch row 1 (bottom tier, lighter openings) -->
  <g fill="#6b2a10" opacity="0.9">
    <path d="M 175 620 L 175 520 Q 175 505 183 505 L 205 505 Q 213 505 213 520 L 213 620 Z"/>
    <path d="M 223 620 L 223 515 Q 223 500 231 500 L 253 500 Q 261 500 261 515 L 261 620 Z"/>
    <path d="M 271 620 L 271 510 Q 271 495 279 495 L 301 495 Q 309 495 309 510 L 309 620 Z"/>
    <path d="M 319 620 L 319 505 Q 319 490 327 490 L 349 490 Q 357 490 357 505 L 357 620 Z"/>
    <path d="M 367 620 L 367 500 Q 367 485 375 485 L 397 485 Q 405 485 405 500 L 405 620 Z"/>
    <path d="M 415 620 L 415 496 Q 415 481 423 481 L 445 481 Q 453 481 453 496 L 453 620 Z"/>
    <path d="M 463 620 L 463 493 Q 463 478 471 478 L 493 478 Q 501 478 501 493 L 501 620 Z"/>
    <path d="M 511 620 L 511 491 Q 511 476 519 476 L 541 476 Q 549 476 549 491 L 549 620 Z"/>
    <path d="M 559 620 L 559 491 Q 559 476 567 476 L 589 476 Q 597 476 597 491 L 597 620 Z"/>
    <path d="M 607 620 L 607 492 Q 607 477 615 477 L 637 477 Q 645 477 645 492 L 645 620 Z"/>
    <path d="M 655 620 L 655 494 Q 655 479 663 479 L 685 479 Q 693 479 693 494 L 693 620 Z"/>
    <path d="M 703 620 L 703 497 Q 703 482 711 482 L 733 482 Q 741 482 741 497 L 741 620 Z"/>
    <path d="M 751 620 L 751 500 Q 751 485 759 485 L 781 485 Q 789 485 789 500 L 789 620 Z"/>
    <path d="M 799 620 L 799 504 Q 799 489 807 489 L 829 489 Q 837 489 837 504 L 837 620 Z"/>
    <path d="M 847 620 L 847 508 Q 847 493 855 493 L 877 493 Q 885 493 885 508 L 885 620 Z"/>
    <path d="M 895 620 L 895 514 Q 895 499 903 499 L 925 499 Q 933 499 933 514 L 933 620 Z"/>
    <path d="M 943 620 L 943 522 Q 943 507 951 507 L 973 507 Q 981 507 981 522 L 981 620 Z"/>
  </g>

  <!-- Arch row 2 (upper tier) -->
  <g fill="#4a1808" opacity="0.8">
    <path d="M 190 500 L 190 430 Q 190 420 198 420 L 214 420 Q 222 420 222 430 L 222 500 Z"/>
    <path d="M 235 497 L 235 427 Q 235 417 243 417 L 259 417 Q 267 417 267 427 L 267 497 Z"/>
    <path d="M 280 494 L 280 425 Q 280 415 288 415 L 304 415 Q 312 415 312 425 L 312 494 Z"/>
    <path d="M 325 492 L 325 423 Q 325 413 333 413 L 349 413 Q 357 413 357 423 L 357 492 Z"/>
    <path d="M 370 490 L 370 421 Q 370 411 378 411 L 394 411 Q 402 411 402 421 L 402 490 Z"/>
    <path d="M 415 488 L 415 419 Q 415 409 423 409 L 439 409 Q 447 409 447 419 L 447 488 Z"/>
    <path d="M 460 487 L 460 418 Q 460 408 468 408 L 484 408 Q 492 408 492 418 L 492 487 Z"/>
    <path d="M 505 486 L 505 417 Q 505 407 513 407 L 529 407 Q 537 407 537 417 L 537 486 Z"/>
    <path d="M 550 486 L 550 417 Q 550 407 558 407 L 574 407 Q 582 407 582 417 L 582 486 Z"/>
    <path d="M 595 487 L 595 418 Q 595 408 603 408 L 619 408 Q 627 408 627 418 L 627 487 Z"/>
    <path d="M 640 488 L 640 419 Q 640 409 648 409 L 664 409 Q 672 409 672 419 L 672 488 Z"/>
    <path d="M 685 489 L 685 420 Q 685 410 693 410 L 709 410 Q 717 410 717 420 L 717 489 Z"/>
    <path d="M 730 490 L 730 421 Q 730 411 738 411 L 754 411 Q 762 411 762 421 L 762 490 Z"/>
    <path d="M 775 492 L 775 423 Q 775 413 783 413 L 799 413 Q 807 413 807 423 L 807 492 Z"/>
    <path d="M 820 494 L 820 425 Q 820 415 828 415 L 844 415 Q 852 415 852 425 L 852 494 Z"/>
    <path d="M 865 496 L 865 427 Q 865 417 873 417 L 889 417 Q 897 417 897 427 L 897 496 Z"/>
    <path d="M 910 499 L 910 430 Q 910 420 918 420 L 934 420 Q 942 420 942 430 L 942 499 Z"/>
    <path d="M 950 502 L 950 435 Q 950 425 958 425 L 974 425 Q 982 425 982 435 L 982 502 Z"/>
  </g>

  <!-- Crumbled top section -->
  <path d="M 120 420 L 135 410 L 148 415 L 162 400 L 178 408 L 190 395 L 205 402 L 220 388 L 240 395 L 260 382 L 285 390 L 310 378 L 340 375 L 375 370 L 415 366 L 460 363 L 510 361 L 555 360 L 600 360 L 645 360 L 688 362 L 730 365 L 768 369 L 802 374 L 832 379 L 858 385 L 882 393 L 900 400 L 915 408 L 928 415 L 940 408 L 955 415 L 970 408 L 985 418 L 1000 412 L 1015 420 L 1015 430 L 1080 430 L 1080 420 Q 1060 358 980 342 Q 900 326 800 320 Q 700 317 600 317 Q 500 318 400 322 Q 300 328 200 345 Q 122 360 120 420 Z" fill="#1a0808"/>

  <!-- Atmospheric haze -->
  <rect x="0" y="600" width="1200" height="100" fill="#0d0508" opacity="0.6"/>

  <!-- Reflection glow on ground -->
  <ellipse cx="740" cy="680" rx="200" ry="40" fill="#c9603a" opacity="0.12"/>
</svg>
